<svg width="100" height="47" viewBox="0 0 100 47" fill="none" xmlns="http://www.w3.org/2000/svg">
<path d="M60.75 12.6916L58.5625 15.2489C57.7348 14.5257 56.8094 13.9177 55.8125 13.4419C54.9633 13.1304 54.063 12.9747 53.1563 12.9825C52.2819 12.936 51.4142 13.1553 50.6719 13.6104C50.3819 13.778 50.1423 14.018 49.9777 14.3058C49.813 14.5936 49.7291 14.919 49.7344 15.2489C49.7194 15.4603 49.7539 15.6722 49.8352 15.8686C49.9164 16.065 50.0422 16.2406 50.2031 16.3821C50.5805 16.7198 51.0364 16.9617 51.5312 17.0865C52.1406 17.255 53.0937 17.5153 54.3125 17.8063C56.1656 18.1216 57.9319 18.8098 59.5 19.8276C60.0083 20.2293 60.4142 20.7414 60.6855 21.3236C60.9566 21.9057 61.0858 22.5418 61.0625 23.1813C61.0795 24.0055 60.9073 24.823 60.5584 25.5731C60.2095 26.3233 59.6928 26.987 59.0469 27.515C57.5152 28.692 55.6 29.2851 53.6563 29.1841C52.1623 29.2103 50.6772 28.9557 49.2813 28.4338C47.8084 27.7802 46.4609 26.8841 45.2969 25.7846L47.5313 23.2272C48.47 24.0973 49.5205 24.8439 50.6562 25.4477C51.5973 25.8493 52.6141 26.0529 53.6406 26.0449C54.5655 26.0893 55.4817 25.8541 56.2656 25.3711C56.5762 25.1691 56.8295 24.8932 57.0017 24.5691C57.1737 24.245 57.2592 23.8834 57.25 23.5182C57.2534 23.3067 57.2122 23.0969 57.1289 22.9018C57.0455 22.7069 56.9219 22.5309 56.7656 22.385C56.4523 22.0813 56.0731 21.8509 55.6562 21.7112C54.9167 21.4625 54.1595 21.268 53.3906 21.1293L52.5156 20.8843C50.6805 20.589 48.9383 19.8872 47.4219 18.8323C46.9538 18.3981 46.5881 17.8688 46.3506 17.2816C46.113 16.6944 46.0094 16.0633 46.0469 15.4327C46.0523 14.6756 46.2372 13.9301 46.587 13.2551C46.9369 12.5801 47.4419 11.994 48.0625 11.5431C49.5447 10.4671 51.3606 9.92612 53.2031 10.0117C54.5591 9.98327 55.9091 10.196 57.1875 10.6396C58.5028 11.0837 59.7141 11.7814 60.75 12.6916Z" fill="#415397"/>
<path d="M78.4375 10.2422V13.3049H72.7813V28.6183H69.0938V13.3049H63.4375V10.2422H78.4375Z" fill="#415397"/>
<path d="M93.7656 28.6489L88.1562 19.9049L85.2031 22.9676V28.7101H81.4844V10.334H85.1719V18.5727L92.9844 10.334H97.5156L90.6406 17.3476L97.9375 28.6489H93.7656Z" fill="#415397"/>
<path d="M8.12511 14.9126C8.12511 14.4532 8.26574 14.3154 8.73449 14.3154H13.9689C14.3595 14.3154 14.3595 14.3154 14.3595 13.9479V6.42897C14.3353 5.19672 14.7541 3.99536 15.5424 3.03515C16.3308 2.07493 17.4386 1.41699 18.6719 1.17648C18.7476 1.1524 18.8208 1.12165 18.8907 1.08459C18.7977 1.06946 18.7026 1.06946 18.6094 1.08459C17.1054 1.05111 15.6474 1.59516 14.547 2.60062C12.9845 4.13196 11.422 5.6633 9.85949 7.19464C8.29699 8.72599 6.65636 10.4105 5.17199 12.0643C4.07681 13.2248 3.18461 14.5545 2.53136 15.9999C2.21805 16.6122 2.06249 17.2905 2.07824 17.9753C2.15903 18.8342 2.51802 19.6454 3.10277 20.2901C3.6875 20.9347 4.46733 21.3793 5.32824 21.5586C6.22006 21.6609 7.1181 21.7018 8.01574 21.6811C8.18761 21.6811 8.18761 21.5739 8.18761 21.4514" fill="url(#paint0_linear_184_11363)"/>
<path d="M22.8125 7.3787C22.8125 7.51652 22.9844 11.789 22.9844 13.1978C22.9844 13.5806 22.9844 13.5806 23.3594 13.5806H31.1719C32.4064 13.5927 33.5992 14.0209 34.5497 14.7934C35.5 15.5659 36.1501 16.6355 36.3906 17.8224C36.4147 17.9066 36.4459 17.9886 36.4844 18.0674H36.5781C36.585 17.9654 36.585 17.8632 36.5781 17.7612C36.5601 16.2525 35.9372 14.8112 34.8437 13.7491C33.2812 12.2177 31.7187 10.6864 30.1562 9.15505C28.5937 7.62371 26.9219 6.09237 25.2344 4.56103C24.0339 3.44362 22.65 2.53248 21.1406 1.86587C20.4555 1.54535 19.6875 1.43527 18.9375 1.55004C18.1873 1.66481 17.4901 1.9991 16.9375 2.50903C16.0469 3.2747 15.1093 6.123 15.8125 7.28682" fill="url(#paint1_linear_184_11363)"/>
<path d="M15.2969 28.9863C15.2969 28.8484 15.125 24.576 15.125 23.1672C15.125 22.7843 15.125 22.7843 14.75 22.7843H6.9375C5.69648 22.7879 4.49245 22.3703 3.5298 21.6027C2.56714 20.8351 1.90517 19.7647 1.65625 18.5731C1.63219 18.4889 1.60083 18.407 1.5625 18.3281H1.57812C1.57117 18.4301 1.57117 18.5324 1.57812 18.6344C1.59598 20.1431 2.21902 21.5844 3.3125 22.6465C4.875 24.1778 6.4375 25.7092 8 27.2405C9.5625 28.7719 11.2344 30.3032 12.9219 31.8346C14.1458 32.9434 15.5575 33.8346 17.0937 34.4685C17.7789 34.789 18.5467 34.8991 19.2969 34.7842C20.0469 34.6695 20.7441 34.3352 21.2969 33.8253C22.1875 33.0596 23.125 30.2113 22.4219 29.0475" fill="url(#paint2_linear_184_11363)"/>
<path d="M29.9219 21.4367C29.9219 21.8961 29.7812 22.0339 29.3125 22.0339H24.0781C23.6875 22.0339 23.6875 22.0339 23.6875 22.4014V29.9203C23.7117 31.1526 23.293 32.3539 22.5045 33.3142C21.7162 34.2744 20.6084 34.9324 19.375 35.1728C19.2994 35.197 19.2262 35.2276 19.1562 35.2647C19.1562 35.2647 19.1562 35.2647 19.1562 35.3412H19.4375C20.9364 35.3422 22.3767 34.771 23.4531 33.7486C25.0156 32.2173 26.5781 30.686 28.1406 29.1546C29.7031 27.6233 31.2656 25.9388 32.8281 24.285C33.9233 23.1245 34.8155 21.7948 35.4688 20.3494C35.782 19.7372 35.9377 19.0589 35.9219 18.374C35.8498 17.5426 35.512 16.7547 34.9566 16.1224C34.4011 15.49 33.6562 15.0455 32.8281 14.8519C31.9305 14.7592 31.0272 14.7285 30.125 14.7601C29.9531 14.7601 29.9531 14.8673 29.9531 14.9898" fill="url(#paint3_linear_184_11363)"/>
<path d="M5.38899 40.915V42.5024C5.38899 43.106 5.36047 43.8383 5.0525 44.1345C4.96125 44.2184 4.80157 44.3078 4.64758 44.3357L4.71032 44.727C4.93274 44.727 5.15516 44.6375 5.29774 44.5481C5.83954 44.1904 5.87375 43.2794 5.87375 42.4633V41.3231H7.14555V44.6822H7.64743V40.915H5.38899ZM10.4976 42.5136H9.00335V41.3231H10.5831V40.915H8.50718V44.6822H10.6687V44.2743H9.00335V42.916H10.4976V42.5136ZM11.2133 40.915V42.1839C11.2133 43.106 11.8406 43.3184 12.3482 43.3184C12.6847 43.3184 13.004 43.2347 13.2721 43.0837H13.2835V44.6822H13.7854V40.915H13.2835V42.7036C13.0839 42.8266 12.793 42.916 12.525 42.916C11.9832 42.916 11.7094 42.6253 11.7094 42.1111V40.915H11.2133ZM16.6352 42.5136H15.1409V41.3231H16.7206V40.915H14.6447V44.6822H16.8063V44.2743H15.1409V42.916H16.6352V42.5136ZM17.4517 40.915V44.6711C17.617 44.6934 17.8794 44.7158 18.2273 44.7158C18.752 44.7158 19.2709 44.5985 19.5847 44.2966C19.7842 44.1009 19.9041 43.8326 19.9041 43.4806C19.9041 43.039 19.7044 42.7428 19.4136 42.5583C19.1455 42.3851 18.7863 42.3068 18.4213 42.3068C18.2958 42.3068 18.0677 42.318 17.9478 42.3347V41.3231H19.6075V40.915H17.4517ZM17.9478 42.7093C18.0733 42.6981 18.2273 42.6869 18.3414 42.6869C18.6152 42.6869 18.8717 42.7428 19.0714 42.8769C19.2595 43.0054 19.385 43.2011 19.385 43.4918C19.385 43.7265 19.3052 43.9109 19.1741 44.045C18.9858 44.2408 18.6722 44.3357 18.3642 44.3357C18.1931 44.3357 18.0619 44.3302 17.9478 44.3078V42.7093ZM20.5483 40.915V44.6822H21.0445V42.916H22.9038V44.6822H23.4056V40.915H22.9038V42.4912H21.0445V40.915H20.5483ZM25.8256 40.8536C24.7991 40.8536 24.0406 41.6361 24.0406 42.8322C24.0406 43.9725 24.7534 44.7438 25.7686 44.7438C26.7495 44.7438 27.5538 44.0562 27.5538 42.7595C27.5538 41.6416 26.875 40.8536 25.8256 40.8536ZM25.8028 41.2503C26.6298 41.2503 27.0291 42.0329 27.0291 42.7818C27.0291 43.6371 26.5842 44.3469 25.7972 44.3469C25.0158 44.3469 24.5709 43.6259 24.5709 42.821C24.5709 41.9938 24.9816 41.2503 25.8028 41.2503ZM27.9384 42.9887V43.352H29.347V42.9887H27.9384ZM30.4286 40.915V41.8708C30.4286 42.5192 30.3773 43.0223 30.2461 43.4582C30.1548 43.7544 30.0124 44.0284 29.8697 44.2855L29.5789 44.2966L29.6131 45.5877H30.0009L30.0352 44.6822H32.4589L32.4931 45.5877H32.8809L32.9152 44.2966L32.5788 44.2855V40.915H30.4286ZM30.8906 41.3174H32.0825V44.2798H30.383C30.497 44.0786 30.6169 43.8271 30.6967 43.5644C30.8336 43.1396 30.8906 42.631 30.8906 42.0273V41.3174ZM33.5419 40.915V44.6822H34.0723L35.2756 42.8099C35.538 42.3906 35.8003 41.9546 35.9886 41.541L36.0056 41.5467C35.9658 42.0217 35.96 42.4688 35.96 43.0782V44.6822H36.4277V40.915H35.9316L34.6883 42.8546C34.4088 43.3017 34.1692 43.7097 33.9753 44.1009L33.9639 44.0954C33.9981 43.5924 34.0095 43.1005 34.0095 42.5024V40.915H33.5419ZM39.2803 43.4973L39.6909 44.6822H40.2214L38.9097 40.915H38.3108L37.0048 44.6822H37.5181L37.9173 43.4973H39.2803ZM38.02 43.1172L38.3964 42.0273C38.4705 41.7981 38.5333 41.569 38.5903 41.3454H38.6017C38.6588 41.5634 38.7158 41.7869 38.8013 42.0329L39.1777 43.1172H38.02ZM40.7878 40.915V44.6822H41.2839V41.3231H42.8295V40.915H40.7878ZM43.255 40.915V44.6822H43.7513V42.916H45.6105V44.6822H46.1123V40.915H45.6105V42.4912H43.7513V40.915H43.255ZM48.5323 40.8536C47.5058 40.8536 46.7474 41.6361 46.7474 42.8322C46.7474 43.9725 47.4602 44.7438 48.4753 44.7438C49.4563 44.7438 50.2605 44.0562 50.2605 42.7595C50.2605 41.6416 49.5817 40.8536 48.5323 40.8536ZM48.5095 41.2503C49.3366 41.2503 49.7358 42.0329 49.7358 42.7818C49.7358 43.6371 49.2909 44.3469 48.5039 44.3469C47.7225 44.3469 47.2777 43.6259 47.2777 42.821C47.2777 41.9938 47.6883 41.2503 48.5095 41.2503ZM53.4909 44.1737C53.2914 44.2686 52.9834 44.3302 52.6811 44.3302C51.7458 44.3302 51.2041 43.7377 51.2041 42.8154C51.2041 41.8261 51.8028 41.2615 52.7039 41.2615C53.0233 41.2615 53.2914 41.3286 53.4795 41.418L53.5994 41.0213C53.4681 40.9542 53.1659 40.8536 52.6869 40.8536C51.4949 40.8536 50.6794 41.6528 50.6794 42.8322C50.6794 44.0674 51.4949 44.7381 52.5784 44.7381C53.0461 44.7381 53.4111 44.6487 53.5936 44.5593L53.4909 44.1737ZM55.1463 44.6822H55.6481V41.3286H56.823V40.915H53.977V41.3286H55.1463V44.6822ZM57.2511 40.915V44.6822H57.7814L58.9849 42.8099C59.2472 42.3906 59.5095 41.9546 59.6977 41.541L59.7148 41.5467C59.6748 42.0217 59.6692 42.4688 59.6692 43.0782V44.6822H60.1369V40.915H59.6406L58.3973 42.8546C58.118 43.3017 57.8784 43.7097 57.6845 44.1009L57.6731 44.0954C57.7074 43.5924 57.7188 43.1005 57.7188 42.5024V40.915H57.2511ZM60.943 40.915V42.1839C60.943 43.106 61.5703 43.3184 62.0778 43.3184C62.4144 43.3184 62.7338 43.2347 63.0017 43.0837H63.0131V44.6822H63.515V40.915H63.0131V42.7036C62.8136 42.8266 62.5227 42.916 62.2547 42.916C61.7128 42.916 61.4391 42.6253 61.4391 42.1111V40.915H60.943ZM66.3648 42.5136H64.8706V41.3231H66.4503V40.915H64.3744V44.6822H66.5359V44.2743H64.8706V42.916H66.3648V42.5136ZM69.765 44.1737C69.5653 44.2686 69.2574 44.3302 68.9552 44.3302C68.0199 44.3302 67.478 43.7377 67.478 42.8154C67.478 41.8261 68.0769 41.2615 68.978 41.2615C69.2973 41.2615 69.5653 41.3286 69.7536 41.418L69.8733 41.0213C69.7422 40.9542 69.4398 40.8536 68.9608 40.8536C67.7689 40.8536 66.9533 41.6528 66.9533 42.8322C66.9533 44.0674 67.7689 44.7381 68.8525 44.7381C69.3202 44.7381 69.6852 44.6487 69.8677 44.5593L69.765 44.1737ZM70.4897 40.915V44.6822H70.9802V42.9552H71.1398C71.79 42.9552 72.0352 43.2961 72.212 43.7936C72.3147 44.0898 72.423 44.4251 72.5599 44.6822H73.0959C72.9249 44.3469 72.8166 44.0003 72.6739 43.6147C72.4744 43.106 72.2291 42.7259 71.5961 42.6422L73.0503 40.915H72.4516L71.1341 42.5863H70.9802V40.915H70.4897ZM73.5808 40.915V44.6822H74.1111L75.3145 42.8099C75.5769 42.3906 75.8392 41.9546 76.0274 41.541L76.0445 41.5467C76.0045 42.0217 75.9989 42.4688 75.9989 43.0782V44.6822H76.4666V40.915H75.9703L74.727 42.8546C74.4477 43.3017 74.2081 43.7097 74.0142 44.1009L74.0028 44.0954C74.037 43.5924 74.0484 43.1005 74.0484 42.5024V40.915H73.5808ZM77.3345 40.915V44.6822H77.865L79.0683 42.8099C79.3306 42.3906 79.593 41.9546 79.7813 41.541L79.7983 41.5467C79.7584 42.0217 79.7527 42.4688 79.7527 43.0782V44.6822H80.2203V40.915H79.7242L78.4809 42.8546C78.2014 43.3017 77.9619 43.7097 77.768 44.1009L77.7566 44.0954C77.7908 43.5924 77.8022 43.1005 77.8022 42.5024V40.915H77.3345ZM78.0475 40.127C78.0759 40.4959 78.2984 40.7249 78.7661 40.7249C79.2508 40.7249 79.4789 40.4959 79.5075 40.127H79.1253C79.1025 40.3113 79.0398 40.4735 78.7775 40.4735C78.5094 40.4735 78.4524 40.3001 78.4295 40.127H78.0475ZM82.2969 40.915V44.6822H84.9317L84.9659 45.5877H85.3595L85.3938 44.2966L85.0572 44.2855V40.915H84.5553V44.2743H82.7931V40.915H82.2969ZM88.0077 42.5136H86.5134V41.3231H88.0933V40.915H86.0173V44.6822H88.1788V44.2743H86.5134V42.916H88.0077V42.5136ZM88.8244 40.915V44.6822H89.3205V42.916H91.1797V44.6822H91.6816V40.915H91.1797V42.4912H89.3205V40.915H88.8244ZM93.2747 44.6822H93.7766V41.3286H94.9514V40.915H92.1056V41.3286H93.2747V44.6822ZM95.3795 44.6822H95.8758V43.1731C95.9899 43.2011 96.1267 43.2066 96.275 43.2066C96.7597 43.2066 97.1875 43.067 97.4499 42.793C97.6438 42.5975 97.7464 42.3292 97.7464 41.9881C97.7464 41.6528 97.6209 41.379 97.4099 41.2001C97.1817 40.9989 96.8225 40.8871 96.332 40.8871C95.9328 40.8871 95.6191 40.9206 95.3795 40.9597V44.6822ZM95.8758 41.3119C95.9613 41.2895 96.1267 41.2727 96.3434 41.2727C96.8909 41.2727 97.2502 41.5131 97.2502 42.0105C97.2502 42.5304 96.8852 42.8154 96.2864 42.8154C96.1209 42.8154 95.9841 42.8042 95.8758 42.7763V41.3119Z" fill="#415397"/>
<defs>
<linearGradient id="paint0_linear_184_11363" x1="10.4532" y1="0.977401" x2="10.4532" y2="21.6199" gradientUnits="userSpaceOnUse">
<stop stop-color="#3AB5B0"/>
<stop offset="0.24" stop-color="#3D99BE"/>
<stop offset="0.78" stop-color="#56317A"/>
</linearGradient>
<linearGradient id="paint1_linear_184_11363" x1="15.5624" y1="9.76759" x2="36.5781" y2="9.76759" gradientUnits="userSpaceOnUse">
<stop offset="0.22" stop-color="#56317A"/>
<stop offset="0.76" stop-color="#3D99BE"/>
<stop offset="1" stop-color="#3AB5B0"/>
</linearGradient>
<linearGradient id="paint2_linear_184_11363" x1="12.0156" y1="34.836" x2="12.0156" y2="18.3281" gradientUnits="userSpaceOnUse">
<stop offset="0.22" stop-color="#56317A"/>
<stop offset="0.76" stop-color="#3D99BE"/>
<stop offset="1" stop-color="#3AB5B0"/>
</linearGradient>
<linearGradient id="paint3_linear_184_11363" x1="492.816" y1="96.0914" x2="673.728" y2="96.0914" gradientUnits="userSpaceOnUse">
<stop stop-color="#3AB5B0"/>
<stop offset="0.24" stop-color="#3D99BE"/>
<stop offset="0.78" stop-color="#56317A"/>
</linearGradient>
</defs>
</svg>
