<svg width="105" height="53" viewBox="0 0 105 53" fill="none" xmlns="http://www.w3.org/2000/svg">
<g filter="url(#filter0_d_2_583)">
<path d="M63.75 11.7297L61.5625 14.2904C60.7348 13.5663 59.8094 12.9575 58.8125 12.4811C57.9633 12.1692 57.063 12.0132 56.1563 12.0211C55.2819 11.9745 54.4142 12.194 53.6719 12.6497C53.3819 12.8176 53.1423 13.0579 52.9777 13.346C52.813 13.6342 52.7291 13.9601 52.7344 14.2904C52.7194 14.5021 52.7539 14.7143 52.8352 14.9109C52.9164 15.1075 53.0422 15.2834 53.2031 15.4251C53.5805 15.7632 54.0364 16.0055 54.5312 16.1304C55.1406 16.2991 56.0937 16.5598 57.3125 16.8511C59.1656 17.1668 60.9319 17.8559 62.5 18.8751C63.0083 19.2773 63.4142 19.79 63.6855 20.373C63.9566 20.9558 64.0858 21.5928 64.0625 22.2331C64.0795 23.0583 63.9073 23.877 63.5584 24.628C63.2095 25.3792 62.6928 26.0437 62.0469 26.5724C60.5152 27.7509 58.6 28.3448 56.6563 28.2438C55.1623 28.27 53.6772 28.015 52.2813 27.4924C50.8084 26.838 49.4609 25.9407 48.2969 24.8398L50.5313 22.2791C51.47 23.1503 52.5205 23.8978 53.6562 24.5024C54.5973 24.9046 55.6141 25.1084 56.6406 25.1004C57.5655 25.1449 58.4817 24.9094 59.2656 24.4258C59.5762 24.2235 59.8295 23.9472 60.0017 23.6228C60.1737 23.2981 60.2592 22.9361 60.25 22.5704C60.2534 22.3587 60.2122 22.1486 60.1289 21.9533C60.0455 21.7581 59.9219 21.5819 59.7656 21.4358C59.4523 21.1317 59.0731 20.9009 58.6562 20.7611C57.9167 20.5121 57.1595 20.3173 56.3906 20.1784L55.5156 19.9331C53.6805 19.6375 51.9383 18.9347 50.4219 17.8784C49.9538 17.4437 49.5881 16.9137 49.3506 16.3258C49.113 15.7377 49.0094 15.1059 49.0469 14.4744C49.0523 13.7164 49.2372 12.9699 49.587 12.294C49.9369 11.6181 50.4419 11.0313 51.0625 10.5797C52.5447 9.50236 54.3606 8.96068 56.2031 9.04641C57.5591 9.01791 58.9091 9.2309 60.1875 9.67508C61.5028 10.1198 62.7141 10.8184 63.75 11.7297Z" fill="#415397"/>
<path d="M81.4375 9.27637V12.343H75.7813V27.6764H72.0938V12.343H66.4375V9.27637H81.4375Z" fill="#415397"/>
<path d="M96.7656 27.7074L91.1562 18.952L88.2031 22.0187V27.7687H84.4844V9.36865H88.1719V17.618L95.9844 9.36865H100.516L93.6406 16.3914L100.937 27.7074H96.7656Z" fill="#415397"/>
<path d="M11.1251 13.9531C11.1251 13.4931 11.2657 13.3551 11.7344 13.3551H16.9688C17.3594 13.3551 17.3594 13.3551 17.3594 12.9871V5.4584C17.3353 4.22454 17.754 3.02163 18.5424 2.06016C19.3308 1.09869 20.4386 0.439903 21.6719 0.199071C21.7475 0.174969 21.8208 0.144175 21.8906 0.107071C21.7976 0.091914 21.7025 0.091914 21.6094 0.107071C20.1053 0.0735391 18.6473 0.6183 17.5469 1.62507C15.9844 3.1584 14.4219 4.69173 12.8594 6.22507C11.2969 7.7584 9.6563 9.44507 8.17193 11.1011C7.07675 12.2631 6.18455 13.5945 5.5313 15.0417C5.21799 15.6549 5.06242 16.334 5.07817 17.0197C5.15897 17.8798 5.51796 18.692 6.10271 19.3375C6.68744 19.983 7.46727 20.4282 8.32818 20.6077C9.22 20.7101 10.118 20.7511 11.0157 20.7304C11.1876 20.7304 11.1876 20.6231 11.1876 20.5004" fill="url(#paint0_linear_2_583)"/>
<path d="M25.8125 6.40928C25.8125 6.54728 25.9844 10.8253 25.9844 12.236C25.9844 12.6193 25.9844 12.6193 26.3594 12.6193H34.1719C35.4064 12.6313 36.5992 13.0601 37.5497 13.8336C38.5 14.6071 39.1501 15.6781 39.3906 16.8666C39.4147 16.9509 39.4459 17.033 39.4844 17.1119H39.5781C39.585 17.0098 39.585 16.9074 39.5781 16.8053C39.5601 15.2946 38.9372 13.8515 37.8437 12.788C36.2812 11.2546 34.7187 9.72128 33.1562 8.18795C31.5937 6.65462 29.9219 5.12128 28.2344 3.58795C27.0339 2.46909 25.65 1.55676 24.1406 0.889288C23.4555 0.568355 22.6875 0.458123 21.9375 0.573046C21.1873 0.687971 20.4901 1.02269 19.9375 1.53329C19.0469 2.29995 18.1093 5.15195 18.8125 6.31728" fill="url(#paint1_linear_2_583)"/>
<path d="M18.2969 28.045C18.2969 27.907 18.125 23.629 18.125 22.2184C18.125 21.835 18.125 21.835 17.75 21.835H9.9375C8.69648 21.8386 7.49245 21.4204 6.5298 20.6519C5.56714 19.8833 4.90517 18.8115 4.65625 17.6184C4.63219 17.534 4.60083 17.452 4.5625 17.373H4.57812C4.57117 17.4752 4.57117 17.5776 4.57812 17.6797C4.59598 19.1904 5.21902 20.6335 6.3125 21.697C7.875 23.2304 9.4375 24.7637 11 26.297C12.5625 27.8304 14.2344 29.3637 15.9219 30.897C17.1458 32.0073 18.5575 32.8997 20.0937 33.5344C20.7789 33.8553 21.5467 33.9656 22.2969 33.8506C23.0469 33.7357 23.7441 33.401 24.2969 32.8904C25.1875 32.1237 26.125 29.2717 25.4219 28.1064" fill="url(#paint2_linear_2_583)"/>
<path d="M32.9219 20.4854C32.9219 20.9454 32.7812 21.0834 32.3125 21.0834H27.0781C26.6875 21.0834 26.6875 21.0834 26.6875 21.4514V28.9801C26.7117 30.2139 26.293 31.4168 25.5045 32.3784C24.7162 33.3398 23.6084 33.9987 22.375 34.2394C22.2994 34.2636 22.2262 34.2943 22.1562 34.3314C22.1562 34.3314 22.1562 34.3314 22.1562 34.4081H22.4375C23.9364 34.409 25.3767 33.8371 26.4531 32.8134C28.0156 31.2801 29.5781 29.7467 31.1406 28.2134C32.7031 26.6801 34.2656 24.9934 35.8281 23.3374C36.9233 22.1754 37.8155 20.844 38.4688 19.3967C38.782 18.7837 38.9377 18.1046 38.9219 17.4187C38.8498 16.5863 38.512 15.7974 37.9566 15.1642C37.4011 14.531 36.6562 14.0859 35.8281 13.8921C34.9305 13.7992 34.0272 13.7685 33.125 13.8001C32.9531 13.8001 32.9531 13.9074 32.9531 14.0301" fill="url(#paint3_linear_2_583)"/>
<path d="M8.38899 39.9893V41.5787C8.38899 42.1831 8.36047 42.9164 8.0525 43.2129C7.96125 43.297 7.80157 43.3865 7.64758 43.4144L7.71032 43.8062C7.93274 43.8062 8.15516 43.7166 8.29774 43.6271C8.83954 43.2689 8.87375 42.3567 8.87375 41.5396V40.3979H10.1456V43.7614H10.6474V39.9893H8.38899ZM13.4976 41.5899H12.0033V40.3979H13.5831V39.9893H11.5072V43.7614H13.6687V43.3529H12.0033V41.9929H13.4976V41.5899ZM14.2133 39.9893V41.2598C14.2133 42.1831 14.8406 42.3958 15.3482 42.3958C15.6847 42.3958 16.004 42.3119 16.2721 42.1608H16.2835V43.7614H16.7854V39.9893H16.2835V41.7802C16.0839 41.9033 15.793 41.9929 15.525 41.9929C14.9832 41.9929 14.7094 41.7018 14.7094 41.1869V39.9893H14.2133ZM19.6352 41.5899H18.1409V40.3979H19.7206V39.9893H17.6447V43.7614H19.8063V43.3529H18.1409V41.9929H19.6352V41.5899ZM20.4517 39.9893V43.7502C20.617 43.7726 20.8794 43.795 21.2273 43.795C21.752 43.795 22.2709 43.6775 22.5847 43.3753C22.7842 43.1794 22.9041 42.9107 22.9041 42.5582C22.9041 42.116 22.7044 41.8194 22.4136 41.6347C22.1455 41.4612 21.7863 41.3829 21.4213 41.3829C21.2958 41.3829 21.0677 41.3941 20.9478 41.4108V40.3979H22.6075V39.9893H20.4517ZM20.9478 41.7859C21.0733 41.7747 21.2273 41.7635 21.3414 41.7635C21.6152 41.7635 21.8717 41.8194 22.0714 41.9538C22.2595 42.0824 22.385 42.2784 22.385 42.5694C22.385 42.8044 22.3052 42.9891 22.1741 43.1234C21.9858 43.3193 21.6722 43.4144 21.3642 43.4144C21.1931 43.4144 21.0619 43.4089 20.9478 43.3865V41.7859ZM23.5483 39.9893V43.7614H24.0445V41.9929H25.9038V43.7614H26.4056V39.9893H25.9038V41.5675H24.0445V39.9893H23.5483ZM28.8256 39.9278C27.7991 39.9278 27.0406 40.7113 27.0406 41.909C27.0406 43.0507 27.7534 43.823 28.7686 43.823C29.7495 43.823 30.5538 43.1346 30.5538 41.8362C30.5538 40.7168 29.875 39.9278 28.8256 39.9278ZM28.8028 40.325C29.6298 40.325 30.0291 41.1086 30.0291 41.8585C30.0291 42.7149 29.5842 43.4256 28.7972 43.4256C28.0158 43.4256 27.5709 42.7037 27.5709 41.8978C27.5709 41.0695 27.9816 40.325 28.8028 40.325ZM30.9384 42.0657V42.4294H32.347V42.0657H30.9384ZM33.4286 39.9893V40.9464C33.4286 41.5956 33.3773 42.0993 33.2461 42.5358C33.1548 42.8324 33.0124 43.1067 32.8697 43.3641L32.5789 43.3753L32.6131 44.6681H33.0009L33.0352 43.7614H35.4589L35.4931 44.6681H35.8809L35.9152 43.3753L35.5788 43.3641V39.9893H33.4286ZM33.8906 40.3922H35.0825V43.3584H33.383C33.497 43.157 33.6169 42.9052 33.6967 42.6421C33.8336 42.2167 33.8906 41.7075 33.8906 41.1031V40.3922ZM36.5419 39.9893V43.7614H37.0723L38.2756 41.8866C38.538 41.4668 38.8003 41.0302 38.9886 40.6161L39.0056 40.6217C38.9658 41.0974 38.96 41.5451 38.96 42.1552V43.7614H39.4277V39.9893H38.9316L37.6883 41.9314C37.4088 42.3791 37.1692 42.7876 36.9753 43.1794L36.9639 43.1738C36.9981 42.6701 37.0095 42.1776 37.0095 41.5787V39.9893H36.5419ZM42.2803 42.5749L42.6909 43.7614H43.2214L41.9097 39.9893H41.3108L40.0048 43.7614H40.5181L40.9173 42.5749H42.2803ZM41.02 42.1943L41.3964 41.1031C41.4705 40.8735 41.5333 40.6441 41.5903 40.4203H41.6017C41.6588 40.6385 41.7158 40.8623 41.8013 41.1086L42.1777 42.1943H41.02ZM43.7878 39.9893V43.7614H44.2839V40.3979H45.8295V39.9893H43.7878ZM46.255 39.9893V43.7614H46.7513V41.9929H48.6105V43.7614H49.1123V39.9893H48.6105V41.5675H46.7513V39.9893H46.255ZM51.5323 39.9278C50.5058 39.9278 49.7474 40.7113 49.7474 41.909C49.7474 43.0507 50.4602 43.823 51.4753 43.823C52.4563 43.823 53.2605 43.1346 53.2605 41.8362C53.2605 40.7168 52.5817 39.9278 51.5323 39.9278ZM51.5095 40.325C52.3366 40.325 52.7358 41.1086 52.7358 41.8585C52.7358 42.7149 52.2909 43.4256 51.5039 43.4256C50.7225 43.4256 50.2777 42.7037 50.2777 41.8978C50.2777 41.0695 50.6883 40.325 51.5095 40.325ZM56.4909 43.2522C56.2914 43.3472 55.9834 43.4089 55.6811 43.4089C54.7458 43.4089 54.2041 42.8156 54.2041 41.8921C54.2041 40.9016 54.8028 40.3362 55.7039 40.3362C56.0233 40.3362 56.2914 40.4034 56.4795 40.4929L56.5994 40.0957C56.4681 40.0285 56.1659 39.9278 55.6869 39.9278C54.4949 39.9278 53.6794 40.728 53.6794 41.909C53.6794 43.1458 54.4949 43.8174 55.5784 43.8174C56.0461 43.8174 56.4111 43.7278 56.5936 43.6383L56.4909 43.2522ZM58.1463 43.7614H58.6481V40.4034H59.823V39.9893H56.977V40.4034H58.1463V43.7614ZM60.2511 39.9893V43.7614H60.7814L61.9849 41.8866C62.2472 41.4668 62.5095 41.0302 62.6977 40.6161L62.7148 40.6217C62.6748 41.0974 62.6692 41.5451 62.6692 42.1552V43.7614H63.1369V39.9893H62.6406L61.3973 41.9314C61.118 42.3791 60.8784 42.7876 60.6845 43.1794L60.6731 43.1738C60.7074 42.6701 60.7188 42.1776 60.7188 41.5787V39.9893H60.2511ZM63.943 39.9893V41.2598C63.943 42.1831 64.5703 42.3958 65.0778 42.3958C65.4144 42.3958 65.7338 42.3119 66.0017 42.1608H66.0131V43.7614H66.515V39.9893H66.0131V41.7802C65.8136 41.9033 65.5227 41.9929 65.2547 41.9929C64.7128 41.9929 64.4391 41.7018 64.4391 41.1869V39.9893H63.943ZM69.3648 41.5899H67.8706V40.3979H69.4503V39.9893H67.3744V43.7614H69.5359V43.3529H67.8706V41.9929H69.3648V41.5899ZM72.765 43.2522C72.5653 43.3472 72.2574 43.4089 71.9552 43.4089C71.0199 43.4089 70.478 42.8156 70.478 41.8921C70.478 40.9016 71.0769 40.3362 71.978 40.3362C72.2973 40.3362 72.5653 40.4034 72.7536 40.4929L72.8733 40.0957C72.7422 40.0285 72.4398 39.9278 71.9608 39.9278C70.7689 39.9278 69.9533 40.728 69.9533 41.909C69.9533 43.1458 70.7689 43.8174 71.8525 43.8174C72.3202 43.8174 72.6852 43.7278 72.8677 43.6383L72.765 43.2522ZM73.4897 39.9893V43.7614H73.9802V42.0321H74.1398C74.79 42.0321 75.0352 42.3734 75.212 42.8716C75.3147 43.1682 75.423 43.504 75.5599 43.7614H76.0959C75.9249 43.4256 75.8166 43.0786 75.6739 42.6925C75.4744 42.1831 75.2291 41.8026 74.5961 41.7187L76.0503 39.9893H75.4516L74.1341 41.6627H73.9802V39.9893H73.4897ZM76.5808 39.9893V43.7614H77.1111L78.3145 41.8866C78.5769 41.4668 78.8392 41.0302 79.0274 40.6161L79.0445 40.6217C79.0045 41.0974 78.9989 41.5451 78.9989 42.1552V43.7614H79.4666V39.9893H78.9703L77.727 41.9314C77.4477 42.3791 77.2081 42.7876 77.0142 43.1794L77.0028 43.1738C77.037 42.6701 77.0484 42.1776 77.0484 41.5787V39.9893H76.5808ZM80.3345 39.9893V43.7614H80.865L82.0683 41.8866C82.3306 41.4668 82.593 41.0302 82.7813 40.6161L82.7983 40.6217C82.7584 41.0974 82.7527 41.5451 82.7527 42.1552V43.7614H83.2203V39.9893H82.7242L81.4809 41.9314C81.2014 42.3791 80.9619 42.7876 80.768 43.1794L80.7566 43.1738C80.7908 42.6701 80.8022 42.1776 80.8022 41.5787V39.9893H80.3345ZM81.0475 39.2002C81.0759 39.5696 81.2984 39.799 81.7661 39.799C82.2508 39.799 82.4789 39.5696 82.5075 39.2002H82.1253C82.1025 39.3848 82.0398 39.5472 81.7775 39.5472C81.5094 39.5472 81.4524 39.3736 81.4295 39.2002H81.0475ZM85.2969 39.9893V43.7614H87.9317L87.9659 44.6681H88.3595L88.3938 43.3753L88.0572 43.3641V39.9893H87.5553V43.3529H85.7931V39.9893H85.2969ZM91.0077 41.5899H89.5134V40.3979H91.0933V39.9893H89.0173V43.7614H91.1788V43.3529H89.5134V41.9929H91.0077V41.5899ZM91.8244 39.9893V43.7614H92.3205V41.9929H94.1797V43.7614H94.6816V39.9893H94.1797V41.5675H92.3205V39.9893H91.8244ZM96.2747 43.7614H96.7766V40.4034H97.9514V39.9893H95.1056V40.4034H96.2747V43.7614ZM98.3795 43.7614H98.8758V42.2503C98.9899 42.2784 99.1267 42.2839 99.275 42.2839C99.7597 42.2839 100.188 42.144 100.45 41.8697C100.644 41.6739 100.746 41.4053 100.746 41.0638C100.746 40.728 100.621 40.4538 100.41 40.2748C100.182 40.0733 99.8225 39.9613 99.332 39.9613C98.9328 39.9613 98.6191 39.9949 98.3795 40.034V43.7614ZM98.8758 40.3867C98.9613 40.3643 99.1267 40.3474 99.3434 40.3474C99.8909 40.3474 100.25 40.5882 100.25 41.0862C100.25 41.6068 99.8852 41.8921 99.2864 41.8921C99.1209 41.8921 98.9841 41.8809 98.8758 41.853V40.3867Z" fill="#415397"/>
</g>
<defs>
<filter id="filter0_d_2_583" x="-1" y="0" width="108" height="54" filterUnits="userSpaceOnUse" color-interpolation-filters="sRGB">
<feFlood flood-opacity="0" result="BackgroundImageFix"/>
<feColorMatrix in="SourceAlpha" type="matrix" values="0 0 0 0 0 0 0 0 0 0 0 0 0 0 0 0 0 0 127 0" result="hardAlpha"/>
<feOffset dy="4"/>
<feGaussianBlur stdDeviation="2"/>
<feComposite in2="hardAlpha" operator="out"/>
<feColorMatrix type="matrix" values="0 0 0 0 0 0 0 0 0 0 0 0 0 0 0 0 0 0 0.25 0"/>
<feBlend mode="normal" in2="BackgroundImageFix" result="effect1_dropShadow_2_583"/>
<feBlend mode="normal" in="SourceGraphic" in2="effect1_dropShadow_2_583" result="shape"/>
</filter>
<linearGradient id="paint0_linear_2_583" x1="13.4532" y1="-0.000262699" x2="13.4532" y2="20.6691" gradientUnits="userSpaceOnUse">
<stop stop-color="#3AB5B0"/>
<stop offset="0.24" stop-color="#3D99BE"/>
<stop offset="0.78" stop-color="#56317A"/>
</linearGradient>
<linearGradient id="paint1_linear_2_583" x1="18.5624" y1="8.80128" x2="39.5781" y2="8.80128" gradientUnits="userSpaceOnUse">
<stop offset="0.22" stop-color="#56317A"/>
<stop offset="0.76" stop-color="#3D99BE"/>
<stop offset="1" stop-color="#3AB5B0"/>
</linearGradient>
<linearGradient id="paint2_linear_2_583" x1="15.0156" y1="33.9024" x2="15.0156" y2="17.373" gradientUnits="userSpaceOnUse">
<stop offset="0.22" stop-color="#56317A"/>
<stop offset="0.76" stop-color="#3D99BE"/>
<stop offset="1" stop-color="#3AB5B0"/>
</linearGradient>
<linearGradient id="paint3_linear_2_583" x1="495.816" y1="95.2372" x2="676.728" y2="95.2372" gradientUnits="userSpaceOnUse">
<stop stop-color="#3AB5B0"/>
<stop offset="0.24" stop-color="#3D99BE"/>
<stop offset="0.78" stop-color="#56317A"/>
</linearGradient>
</defs>
</svg>
