<svg width="80" height="80" viewBox="0 0 80 80" fill="none" xmlns="http://www.w3.org/2000/svg">
<path fill-rule="evenodd" clip-rule="evenodd" d="M26.8269 18.5085C24.3734 16.0537 20.394 16.0523 17.9387 18.5055L16.7652 19.678C14.5331 19.0437 12.0359 19.6113 10.2784 21.3807C7.685 23.9917 7.685 28.2292 10.2784 30.8402L11.6667 32.2378V49.9998H6.66669V53.3332H10.0842C9.00374 54.392 8.33335 55.8677 8.33335 57.4998C8.33335 60.7215 10.945 63.3332 14.1667 63.3332C17.3884 63.3332 20 60.7215 20 57.4998C20 55.8677 19.3297 54.392 18.2492 53.3332H61.7509C60.6704 54.392 60 55.8677 60 57.4998C60 60.7215 62.6117 63.3332 65.8334 63.3332C69.055 63.3332 71.6667 60.7215 71.6667 57.4998C71.6667 55.8677 70.9964 54.392 69.9159 53.3332H73.3334V49.9998H66.6667V44.812C69.5364 44.1075 71.6667 41.4987 71.6667 38.3882C71.6667 34.737 68.7314 31.7772 65.1104 31.7772H30.1834C30.0475 31.7772 29.917 31.7227 29.8209 31.6258L29.2102 31.0112L29.8242 30.3977C32.2797 27.9443 32.281 23.9653 29.8272 21.5103L26.8269 18.5085ZM26.8612 28.6462L27.4682 28.0397C28.6212 26.8877 28.6219 25.0195 27.4697 23.8668L24.4694 20.865C23.317 19.712 21.4479 19.7113 20.2947 20.8635L19.7105 21.4472L26.8612 28.6462ZM68.3334 38.3882C68.3334 36.5517 66.8642 35.1105 65.1104 35.1105H30.1834C29.1554 35.1105 28.175 34.6988 27.456 33.975L17.2795 23.7298C15.9955 22.437 13.9274 22.437 12.6434 23.7298C11.3411 25.0408 11.3411 27.18 12.6434 28.4912L25.7299 41.666H65.1104C66.8644 41.666 68.3334 40.2247 68.3334 38.3882ZM23.792 44.4452C24.1445 44.8 24.6222 44.9993 25.1204 44.9993H63.3334V49.9998H15V35.5937L23.792 44.4452ZM16.6667 57.4998C16.6667 58.8805 15.5474 59.9998 14.1667 59.9998C12.786 59.9998 11.6667 58.8805 11.6667 57.4998C11.6667 56.1192 12.786 54.9998 14.1667 54.9998C15.5474 54.9998 16.6667 56.1192 16.6667 57.4998ZM65.8334 59.9998C67.214 59.9998 68.3334 58.8805 68.3334 57.4998C68.3334 56.1192 67.214 54.9998 65.8334 54.9998C64.4527 54.9998 63.3334 56.1192 63.3334 57.4998C63.3334 58.8805 64.4527 59.9998 65.8334 59.9998Z" fill="#758AD6"/>
</svg>
