<svg width="620" height="620" viewBox="0 0 620 620" fill="none" xmlns="http://www.w3.org/2000/svg">
<path d="M155 129.167C169.268 129.167 180.833 117.601 180.833 103.333C180.833 89.066 169.268 77.5 155 77.5C145.438 77.5 137.09 82.6951 132.623 90.4167H129.167C107.766 90.4167 90.4167 107.766 90.4167 129.167V245.417C83.2833 245.417 77.4394 251.212 78.0868 258.317C81.0898 291.27 95.5275 322.297 119.116 345.885C136.413 363.182 157.71 375.559 180.833 382.114V413.333C180.833 430.208 191.619 444.562 206.672 449.88C207.222 501.127 248.936 542.5 300.312 542.5C352.032 542.5 393.958 500.574 393.958 448.854V397.188C393.958 370.436 415.644 348.75 442.396 348.75C469.148 348.75 490.833 370.436 490.833 397.188V428.455C475.783 433.774 465 448.128 465 465C465 486.402 482.348 503.75 503.75 503.75C525.152 503.75 542.5 486.402 542.5 465C542.5 448.128 531.717 433.774 516.667 428.455V397.188C516.667 356.169 483.414 322.917 442.396 322.917C401.378 322.917 368.125 356.169 368.125 397.188V448.854C368.125 486.306 337.764 516.667 300.312 516.667C263.202 516.667 233.054 486.856 232.508 449.876C247.554 444.554 258.333 430.203 258.333 413.333V382.114C281.457 375.559 302.755 363.182 320.052 345.885C343.64 322.297 358.077 291.27 361.08 258.317C361.729 251.212 355.884 245.417 348.75 245.417V129.167C348.75 107.766 331.402 90.4167 310 90.4167H306.544C302.077 82.6951 293.729 77.5 284.167 77.5C269.899 77.5 258.333 89.066 258.333 103.333C258.333 117.601 269.899 129.167 284.167 129.167C293.729 129.167 302.077 123.972 306.544 116.25H310C317.134 116.25 322.917 122.033 322.917 129.167V245.417H325.623C318.489 245.417 312.798 251.228 311.812 258.293C309.029 278.233 299.831 296.864 285.431 311.265C267.967 328.728 244.281 338.539 219.583 338.539C194.887 338.539 171.2 328.728 153.737 311.265C139.336 296.864 130.139 278.233 127.356 258.293C126.369 251.228 120.679 245.417 113.545 245.417H116.25V129.167C116.25 122.033 122.033 116.25 129.167 116.25H132.623C137.09 123.972 145.438 129.167 155 129.167Z" fill="#F0F4F9"/>
</svg>
